<svg width="500" height="300" viewBox="0 0 500 300" fill="none" xmlns="http://www.w3.org/2000/svg">
<rect width="500" height="300" rx="20" fill="#222222"/>
<path d="M189.775 156.652C189.775 159.724 189.156 162.476 187.919 164.908C186.681 167.297 184.825 169.175 182.351 170.54C179.876 171.905 176.847 172.588 173.263 172.588C167.887 172.588 163.791 171.159 160.975 168.3C158.159 165.441 156.751 161.559 156.751 156.652V127.148H167.311V152.748C167.311 155.607 167.46 157.889 167.759 159.596C168.057 161.303 168.633 162.604 169.487 163.5C170.383 164.353 171.641 164.78 173.263 164.78C174.884 164.78 176.121 164.353 176.975 163.5C177.871 162.604 178.468 161.303 178.767 159.596C179.065 157.889 179.215 155.607 179.215 152.748V127.148H189.775V156.652ZM228.79 158.508C228.79 161.281 228.064 163.735 226.614 165.868C225.163 168.001 223.072 169.665 220.342 170.86C217.654 172.012 214.454 172.588 210.742 172.588C203.403 172.588 197.558 170.455 193.206 166.188L198.518 160.3C201.888 163.287 205.878 164.78 210.486 164.78C212.704 164.78 214.475 164.311 215.798 163.372C217.163 162.391 217.846 161.047 217.846 159.34C217.846 157.719 217.27 156.46 216.118 155.564C215.008 154.625 212.918 153.687 209.846 152.748C204.64 151.169 200.95 149.313 198.774 147.18C196.598 145.047 195.51 142.295 195.51 138.924C195.51 136.279 196.235 133.975 197.686 132.012C199.179 130.049 201.184 128.556 203.702 127.532C206.262 126.508 209.099 125.996 212.214 125.996C218.742 125.996 224.032 127.916 228.086 131.756L223.158 137.452C221.664 136.215 220.043 135.297 218.294 134.7C216.587 134.06 214.816 133.74 212.982 133.74C210.934 133.74 209.312 134.124 208.118 134.892C206.966 135.617 206.39 136.684 206.39 138.092C206.39 139.031 206.646 139.82 207.158 140.46C207.712 141.1 208.608 141.697 209.846 142.252C211.083 142.807 212.939 143.468 215.414 144.236C219.936 145.601 223.286 147.372 225.462 149.548C227.68 151.681 228.79 154.668 228.79 158.508ZM243.421 161.9L241.117 171.5H230.108L243.677 127.148H256.413L269.981 171.5H258.717L256.413 161.9H243.421ZM254.685 154.348L249.885 134.7L245.085 154.348H254.685ZM292.1 125.996C295.172 125.996 297.817 126.401 300.036 127.212C302.254 128.023 304.345 129.239 306.308 130.86L301.188 137.068C298.5 134.892 295.556 133.804 292.356 133.804C289.326 133.804 286.873 135.084 284.996 137.644C283.161 140.204 282.244 144.065 282.244 149.228C282.244 154.391 283.161 158.231 284.996 160.748C286.83 163.223 289.348 164.46 292.548 164.46C294.51 164.46 296.196 164.119 297.604 163.436C299.012 162.753 300.526 161.772 302.148 160.492L306.884 166.572C302.958 170.583 297.988 172.588 291.972 172.588C287.918 172.588 284.334 171.692 281.22 169.9C278.148 168.108 275.737 165.463 273.988 161.964C272.238 158.423 271.364 154.177 271.364 149.228C271.364 144.407 272.26 140.247 274.052 136.748C275.844 133.249 278.318 130.583 281.476 128.748C284.633 126.913 288.174 125.996 292.1 125.996ZM344.491 149.292C344.491 156.503 342.955 162.199 339.882 166.38C336.853 170.519 332.48 172.588 326.763 172.588C321.003 172.588 316.608 170.54 313.579 166.444C310.549 162.305 309.035 156.588 309.035 149.292C309.035 142.081 310.549 136.407 313.579 132.268C316.651 128.087 321.045 125.996 326.763 125.996C332.523 125.996 336.917 128.065 339.947 132.204C342.976 136.3 344.491 141.996 344.491 149.292ZM333.739 149.292C333.739 143.831 333.184 139.863 332.075 137.388C331.008 134.913 329.237 133.676 326.763 133.676C324.288 133.676 322.496 134.913 321.387 137.388C320.32 139.863 319.787 143.831 319.787 149.292C319.787 154.753 320.32 158.721 321.387 161.196C322.496 163.671 324.288 164.908 326.763 164.908C329.28 164.908 331.072 163.671 332.139 161.196C333.205 158.721 333.739 154.753 333.739 149.292Z" fill="#DDDDDD"/>
</svg>
